HIERARCHY
ROOT Hips
{
	OFFSET 0.000000 0.000000 0.000000
	CHANNELS 6 Xposition Yposition Zposition Zrotation Yrotation Xrotation 
	JOINT LHipJoint
	{
		OFFSET 0.000000 0.000000 0.000000
		CHANNELS 3 Zrotation Yrotation Xrotation
		JOINT LeftUpLeg
		{
			OFFSET 1.363060 -1.794630 0.839290
			CHANNELS 3 Zrotation Yrotation Xrotation
			JOINT LeftLeg
			{
				OFFSET 2.448110 -6.726130 0.000000
				CHANNELS 3 Zrotation Yrotation Xrotation
				JOINT LeftFoot
				{
					OFFSET 2.562200 -7.039590 0.000000
					CHANNELS 3 Zrotation Yrotation Xrotation
					JOINT LeftToeBase
					{
						OFFSET 0.157640 -0.433110 2.322550
						CHANNELS 3 Zrotation Yrotation Xrotation
						End Site
						{
							OFFSET 0.000000 0.000000 0.000000
						}
					}
				}
			}
		}
	}
	JOINT RHipJoint
	{
		OFFSET 0.000000 0.000000 0.000000
		CHANNELS 3 Zrotation Yrotation Xrotation
		JOINT RightUpLeg
		{
			OFFSET -1.305520 -1.794630 0.839290
			CHANNELS 3 Zrotation Yrotation Xrotation
			JOINT RightLeg
			{
				OFFSET -2.542530 -6.985550 0.000000
				CHANNELS 3 Zrotation Yrotation Xrotation
				JOINT RightFoot
				{
					OFFSET -2.568260 -7.056230 0.000000
					CHANNELS 3 Zrotation Yrotation Xrotation
					JOINT RightToeBase
					{
						OFFSET -0.164730 -0.452590 2.363150
						CHANNELS 3 Zrotation Yrotation Xrotation
						End Site
						{
							OFFSET 0.000000 0.000000 0.000000
						}
					}
				}
			}
		}
	}
	JOINT LowerBack
	{
		OFFSET 0.000000 0.000000 0.000000
		CHANNELS 3 Zrotation Yrotation Xrotation
		JOINT Spine
		{
			OFFSET 0.028270 2.035590 -0.193380
			CHANNELS 3 Zrotation Yrotation Xrotation
			JOINT Spine1
			{
				OFFSET 0.056720 2.048850 -0.042750
				CHANNELS 3 Zrotation Yrotation Xrotation
				JOINT Neck
				{
					OFFSET 0.000000 0.000000 0.000000
					CHANNELS 3 Zrotation Yrotation Xrotation
					JOINT Neck1
					{
						OFFSET -0.054170 1.746240 0.172020
						CHANNELS 3 Zrotation Yrotation Xrotation
						JOINT Head
						{
							OFFSET 0.104070 1.761360 -0.123970
							CHANNELS 3 Zrotation Yrotation Xrotation
							End Site
							{
								OFFSET 0.000000 0.000000 0.000000
							}
						}
					}
				}
				JOINT LeftShoulder
				{
					OFFSET 0.000000 0.000000 0.000000
					CHANNELS 3 Zrotation Yrotation Xrotation
					JOINT LeftArm
					{
						OFFSET 3.362410 1.200890 -0.311210
						CHANNELS 3 Zrotation Yrotation Xrotation
						JOINT LeftForeArm
						{
							OFFSET 4.983000 -0.000000 -0.000000
							CHANNELS 3 Zrotation Yrotation Xrotation
							JOINT LeftHand
							{
								OFFSET 3.483560 -0.000000 -0.000000
								CHANNELS 3 Zrotation Yrotation Xrotation
								JOINT LeftFingerBase
								{
									OFFSET 0.000000 0.000000 0.000000
									CHANNELS 3 Zrotation Yrotation Xrotation
									JOINT LeftHandIndex1
									{
										OFFSET 0.715260 -0.000000 -0.000000
										CHANNELS 3 Zrotation Yrotation Xrotation
										End Site
										{
											OFFSET 0.000000 0.000000 0.000000
										}
									}
								}
								JOINT LThumb
								{
									OFFSET 0.000000 0.000000 0.000000
									CHANNELS 3 Zrotation Yrotation Xrotation
									End Site
									{
										OFFSET 0.000000 0.000000 0.000000
									}
								}
							}
						}
					}
				}
				JOINT RightShoulder
				{
					OFFSET 0.000000 0.000000 0.000000
					CHANNELS 3 Zrotation Yrotation Xrotation
					JOINT RightArm
					{
						OFFSET -3.136600 1.374050 -0.404650
						CHANNELS 3 Zrotation Yrotation Xrotation
						JOINT RightForeArm
						{
							OFFSET -5.241900 -0.000000 -0.000000
							CHANNELS 3 Zrotation Yrotation Xrotation
							JOINT RightHand
							{
								OFFSET -3.444170 -0.000000 -0.000000
								CHANNELS 3 Zrotation Yrotation Xrotation
								JOINT RightFingerBase
								{
									OFFSET 0.000000 0.000000 0.000000
									CHANNELS 3 Zrotation Yrotation Xrotation
									JOINT RightHandIndex1
									{
										OFFSET -0.622530 -0.000000 -0.000000
										CHANNELS 3 Zrotation Yrotation Xrotation
										End Site
										{
											OFFSET 0.000000 0.000000 0.000000
										}
									}
								}
								JOINT RThumb
								{
									OFFSET 0.000000 0.000000 0.000000
									CHANNELS 3 Zrotation Yrotation Xrotation
									End Site
									{
										OFFSET 0.000000 0.000000 0.000000
									}
								}
							}
						}
					}
				}
			}
		}
	}
}
MOTION
Frames: 8
Frame Time: 0.008333
4.799694 20.555222 0.601953 21.832778 -79.030146 -2.102723 -10.769291 4.673617 7.870354 -3.102683 -19.397306 -15.944703 1.267429 1.599852 55.927659 3.086640 12.500695 35.350867 7.012699 -0.000000 -63.345101 11.139938 -4.417932 5.030546 5.518231 9.973728 -4.244584 -1.740395 -2.110034 45.007846 -1.503364 -3.592276 23.178161 -1.277000 -0.000000 -84.843700 -4.004856 -1.810337 -14.103356 -1.178886 -1.789878 -5.800743 -3.650757 -1.947771 -1.555464 8.752846 -6.495609 -2.883855 -0.290596 -0.110952 1.417022 0.000000 0.000000 0.000000 18.485124 8.860558 -3.946986 -13.095164 -45.684094 -33.272121 176.881176 -56.019596 179.568818 37.422875 -48.315907 -18.314142 -0.451648 1.972412 -0.000000 0.000000 0.000000 0.000000 0.000000 0.000000 0.000000 -6.764325 -7.312775 -1.391682 28.118658 28.162354 -47.408038 -179.728710 40.992663 179.899841 -38.508244 57.187153 -22.749497 0.675749 -2.102282 -0.000000 0.000000 0.000000 0.000000 0.000000 0.000000 0.000000 
4.612084 20.720611 0.586439 21.355267 -79.032478 -1.946362 -10.939348 4.606266 7.809434 -3.135816 -20.004542 -17.185062 1.418405 2.007913 62.620102 3.185898 13.415085 34.367125 7.409400 -0.000001 -63.007000 11.297332 -4.368493 5.023559 5.545646 10.744693 -5.404595 -1.972838 -2.417296 52.198300 -1.731021 -5.600065 20.065659 -1.987500 0.000000 -84.175800 -3.973461 -1.826623 -14.017628 -1.164231 -1.808463 -5.758421 -3.543795 -1.973076 -1.378715 8.817759 -6.859232 -3.188774 -0.231581 -0.101969 1.336623 0.000000 0.000000 0.000000 18.188377 9.689011 -4.050741 -10.943072 -45.063832 -36.947909 176.938498 -55.257616 179.586846 38.084270 -49.167559 -19.015529 -0.474419 1.988416 -0.000000 0.000000 0.000000 0.000000 0.000000 0.000000 0.000000 -6.866073 -8.011652 -1.310276 26.709070 27.567092 -50.830644 -179.916717 39.508963 179.926235 -40.114248 58.426413 -24.333274 0.715297 -2.155918 -0.000000 0.000000 0.000000 0.000000 0.000000 0.000000 0.000000 
4.430065 20.872096 0.568999 21.067535 -79.104294 -1.942479 -11.142265 4.564497 7.715989 -3.127698 -20.515336 -18.417523 1.631647 2.461469 69.180033 3.260883 14.065030 33.593712 7.654200 -0.000000 -62.747000 11.483270 -4.355315 5.009084 5.450676 11.549776 -6.556584 -2.235936 -2.766711 59.318226 -1.927665 -7.302034 17.201709 -2.420999 0.000000 -83.280600 -3.920819 -1.834993 -13.885498 -1.148470 -1.822951 -5.708716 -3.454789 -1.993630 -1.212759 8.847647 -7.291158 -3.511598 -0.176394 -0.092773 1.250950 0.000000 0.000000 0.000000 17.863289 10.449851 -4.123985 -8.799248 -44.165448 -40.608002 177.018978 -54.530589 179.606495 38.841104 -49.928021 -19.743117 -0.501081 2.001169 -0.000000 0.000000 0.000000 0.000000 0.000000 0.000000 0.000000 -6.939791 -8.741763 -1.243129 25.438129 27.083244 -54.022301 179.920562 38.350008 179.950368 -41.653478 59.521723 -25.852296 0.748327 -2.198376 -0.000000 0.000000 0.000000 0.000000 0.000000 0.000000 0.000000 
4.252339 21.011056 0.550245 20.870862 -79.248692 -1.994046 -11.380047 4.542857 7.599242 -3.032334 -20.945762 -19.645175 1.918602 2.947656 75.564447 3.308347 14.413031 33.031417 7.737100 0.000000 -62.670200 11.690822 -4.377002 4.996739 5.250704 12.419615 -7.696485 -2.552416 -3.153850 66.329430 -2.078958 -8.641596 14.557490 -2.607800 0.000000 -82.206500 -3.834066 -1.833907 -13.727807 -1.129381 -1.833690 -5.653879 -3.389785 -2.009456 -1.053433 8.860735 -7.773946 -3.842255 -0.128751 -0.083802 1.162870 0.000000 0.000000 0.000000 17.519383 11.148585 -4.165740 -6.737404 -43.020013 -44.157008 177.117041 -53.850338 179.627017 39.682553 -50.602307 -20.493197 -0.530569 2.011209 -0.000000 0.000000 0.000000 0.000000 0.000000 0.000000 0.000000 -6.960470 -9.487342 -1.196713 24.283179 26.717796 -56.920952 179.784597 37.492241 179.971661 -43.009352 60.466004 -27.214872 0.773757 -2.230115 -0.000000 0.000000 0.000000 0.000000 0.000000 0.000000 0.000000 
4.077738 21.138642 0.530756 20.683925 -79.464891 -2.017689 -11.653980 4.535518 7.469071 -2.809641 -21.318173 -20.878725 2.288644 3.456014 81.752161 3.323963 14.419189 32.643416 7.637301 0.000000 -62.506400 11.916063 -4.429323 4.996150 4.959429 13.379180 -8.833166 -2.942605 -3.572880 73.224664 -2.176652 -9.594372 12.064260 -2.587100 -0.000000 -80.925900 -3.707294 -1.821960 -13.565987 -1.105313 -1.839823 -5.597239 -3.349550 -2.019630 -0.899095 8.870009 -8.279386 -4.171184 -0.090066 -0.075348 1.075095 0.000000 0.000000 0.000000 17.178787 11.787197 -4.176414 -4.842549 -41.670000 -47.502932 177.225504 -53.225417 179.647584 40.588782 -51.191575 -21.254761 -0.561575 2.018809 -0.000000 0.000000 0.000000 0.000000 0.000000 0.000000 0.000000 -6.920908 -10.218236 -1.172923 23.223617 26.442918 -59.494186 179.676869 36.908492 179.989684 -44.092928 61.252752 -28.342998 0.791296 -2.251726 -0.000000 0.000000 0.000000 0.000000 0.000000 0.000000 0.000000 
3.905103 21.255134 0.510869 20.479030 -79.752071 -1.980700 -11.960834 4.535769 7.337142 -2.438849 -21.670491 -22.110860 2.742811 3.974844 87.700228 3.307961 14.085270 32.456281 7.369300 -0.000000 -62.597300 12.158436 -4.505026 5.014363 4.577994 14.447747 -9.971472 -3.423991 -4.016527 79.994201 -2.220482 -10.180257 9.655899 -2.407400 0.000000 -79.561500 -3.546408 -1.798017 -13.418345 -1.076560 -1.839160 -5.541564 -3.330835 -2.022164 -0.747972 8.886973 -8.785105 -4.492232 -0.060339 -0.067558 0.989335 0.000000 0.000000 0.000000 16.860025 12.381814 -4.160519 -3.177045 -40.190858 -50.573832 177.337367 -52.677618 179.667419 41.523469 -51.708325 -22.011411 -0.592070 2.023878 -0.000000 0.000000 0.000000 0.000000 0.000000 0.000000 0.000000 -6.817836 -10.910743 -1.171794 22.236748 26.230690 -61.727365 179.598290 36.570245 -179.995845 -44.850600 61.877711 -29.182968 0.801292 -2.263944 -0.000000 0.000000 0.000000 0.000000 0.000000 0.000000 0.000000 
3.733764 21.361221 0.490926 20.215396 -80.102156 -1.844717 -12.296740 4.538228 7.213334 -1.901620 -22.041802 -23.331440 3.280345 4.495445 93.372056 3.257958 13.396123 32.457480 6.925300 0.000000 -62.777600 12.416829 -4.596902 5.055747 4.108272 15.636090 -11.106027 -4.010240 -4.477559 86.619471 -2.215674 -10.450984 7.275966 -2.119700 -0.000000 -78.122001 -3.359127 -1.761434 -13.297963 -1.043311 -1.829420 -5.489525 -3.327199 -2.014977 -0.600891 8.915950 -9.263065 -4.798909 -0.037953 -0.060473 0.907373 0.000000 0.000000 0.000000 16.587613 12.939986 -4.123301 -1.799967 -38.659681 -53.309560 177.445781 -52.216802 179.685798 42.443255 -52.156507 -22.738752 -0.620286 2.026319 -0.000000 0.000000 0.000000 0.000000 0.000000 0.000000 0.000000 -6.665870 -11.533144 -1.188967 21.312775 26.024270 -63.628440 179.550196 36.444070 -179.985032 -45.278823 62.335909 -29.716978 0.804868 -2.267571 -0.000000 0.000000 0.000000 0.000000 0.000000 0.000000 0.000000 
3.562832 21.456732 0.471144 19.874740 -80.500888 -1.591026 -12.654230 4.539088 7.108043 -1.188562 -22.479735 -24.518255 3.893512 5.008865 98.712721 3.172760 12.350130 32.652292 6.304800 0.000000 -63.052500 12.689976 -4.697677 5.121601 3.546383 16.947284 -12.218376 -4.710386 -4.947473 93.061774 -2.172042 -10.481223 4.897793 -1.773800 0.000000 -76.637200 -3.157294 -1.712697 -13.213454 -1.006550 -1.808971 -5.442890 -3.331014 -1.996650 -0.458238 8.958670 -9.692351 -5.086740 -0.020790 -0.054054 0.830404 0.000000 0.000000 0.000000 16.379126 13.471530 -4.071798 -0.745913 -37.162067 -55.670152 177.545506 -51.851955 179.702147 43.298809 -52.540168 -23.407485 -0.644616 2.026026 -0.000000 0.000000 0.000000 0.000000 0.000000 0.000000 0.000000 -6.483272 -12.062985 -1.218351 20.449787 25.769173 -65.214291 179.532346 36.492768 -179.977790 -45.417313 62.628004 -29.964320 0.803579 -2.263693 -0.000000 0.000000 0.000000 0.000000 0.000000 0.000000 0.000000 
